<svg width="24" height="24" viewBox="0 0 24 24" fill="none" xmlns="http://www.w3.org/2000/svg">
<g clip-path="url(#clip0_738_6435)">
<path fill-rule="evenodd" clip-rule="evenodd" d="M3 11.5717V16.5C3 18.433 4.567 20 6.5 20H17.5C19.433 20 21 18.433 21 16.5V11.1393C21 10.1006 20.5386 9.11552 19.7406 8.45054L14.3143 3.92859C12.9839 2.81993 11.0427 2.85089 9.74839 4.00143L4.17473 8.9558C3.42752 9.61998 3 10.572 3 11.5717ZM12 15C13.1046 15 14 14.1046 14 13C14 11.8954 13.1046 11 12 11C10.8954 11 10 11.8954 10 13C10 14.1046 10.8954 15 12 15Z" fill="white"/>
<path d="M19.7406 8.45054L20.0607 8.06643L20.0607 8.06643L19.7406 8.45054ZM14.3143 3.92859L13.9942 4.3127L13.9942 4.3127L14.3143 3.92859ZM9.74839 4.00143L10.0806 4.37514L10.0806 4.37514L9.74839 4.00143ZM4.17473 8.9558L3.84254 8.58209L3.84254 8.58209L4.17473 8.9558ZM3.5 16.5V11.5717H2.5V16.5H3.5ZM6.5 19.5C4.84315 19.5 3.5 18.1569 3.5 16.5H2.5C2.5 18.7091 4.29086 20.5 6.5 20.5V19.5ZM17.5 19.5H6.5V20.5H17.5V19.5ZM20.5 16.5C20.5 18.1569 19.1569 19.5 17.5 19.5V20.5C19.7091 20.5 21.5 18.7091 21.5 16.5H20.5ZM20.5 11.1393V16.5H21.5V11.1393H20.5ZM19.4206 8.83465C20.1045 9.40463 20.5 10.249 20.5 11.1393H21.5C21.5 9.95219 20.9727 8.8264 20.0607 8.06643L19.4206 8.83465ZM13.9942 4.3127L19.4206 8.83465L20.0607 8.06643L14.6344 3.54448L13.9942 4.3127ZM10.0806 4.37514C11.19 3.38896 12.8539 3.36242 13.9942 4.3127L14.6344 3.54448C13.1139 2.27744 10.8955 2.31282 9.41621 3.62773L10.0806 4.37514ZM4.50691 9.3295L10.0806 4.37514L9.41621 3.62773L3.84254 8.58209L4.50691 9.3295ZM3.5 11.5717C3.5 10.7148 3.86644 9.8988 4.50691 9.3295L3.84254 8.58209C2.98859 9.34116 2.5 10.4292 2.5 11.5717H3.5ZM13.5 13C13.5 13.8284 12.8284 14.5 12 14.5V15.5C13.3807 15.5 14.5 14.3807 14.5 13H13.5ZM12 11.5C12.8284 11.5 13.5 12.1716 13.5 13H14.5C14.5 11.6193 13.3807 10.5 12 10.5V11.5ZM10.5 13C10.5 12.1716 11.1716 11.5 12 11.5V10.5C10.6193 10.5 9.5 11.6193 9.5 13H10.5ZM12 14.5C11.1716 14.5 10.5 13.8284 10.5 13H9.5C9.5 14.3807 10.6193 15.5 12 15.5V14.5Z" fill="white"/>
</g>
<defs>
<clipPath id="clip0_738_6435">
<rect width="24" height="24" fill="white"/>
</clipPath>
</defs>
</svg>
