<svg width="24" height="24" viewBox="0 0 24 24" fill="none" xmlns="http://www.w3.org/2000/svg">
<path fill-rule="evenodd" clip-rule="evenodd" d="M20.75 12C20.75 11.5858 20.4142 11.25 20 11.25L4.00041 11.25C3.58619 11.25 3.25041 11.5858 3.25041 12C3.25041 12.4142 3.58619 12.75 4.00041 12.75H20C20.4142 12.75 20.75 12.4142 20.75 12ZM17.4669 19C17.4669 18.5858 17.1311 18.25 16.7169 18.25L4 18.25C3.58579 18.25 3.25 18.5858 3.25 19C3.25 19.4142 3.58579 19.75 4 19.75L16.7169 19.75C17.1311 19.75 17.4669 19.4142 17.4669 19ZM11.7781 5C11.7781 4.58579 11.4423 4.25 11.0281 4.25L4 4.25C3.58579 4.25 3.25 4.58579 3.25 5C3.25 5.41421 3.58579 5.75 4 5.75L11.0281 5.75C11.4423 5.75 11.7781 5.41421 11.7781 5Z" fill="white"/>
</svg>
